<?xml version="1.0" encoding="UTF-8"?>
<svg xmlns="http://www.w3.org/2000/svg" xmlns:xlink="http://www.w3.org/1999/xlink" viewBox="0 0 156.83 152.56">
  <defs>
    <style>
      .cls-1 { fill: url(#linear-gradient-5); }
      .cls-2 { fill: url(#linear-gradient-4); }
      .cls-3 { fill: url(#linear-gradient-3); }
      .cls-4 { fill: url(#linear-gradient-2); }
      .cls-5 { fill: url(#linear-gradient); }
      .cls-6 { isolation: isolate; }
    </style>
    <linearGradient id="linear-gradient" x1="-271.99" y1="466.81" x2="231.69" y2="-156.79" gradientUnits="userSpaceOnUse">
      <stop offset="0" stop-color="#ff8a4c"/>
      <stop offset=".18" stop-color="#ffb41e"/>
      <stop offset=".33" stop-color="#31e500"/>
      <stop offset=".48" stop-color="#00cb6b"/>
      <stop offset=".68" stop-color="#6f9be0"/>
      <stop offset=".82" stop-color="#8a5cff"/>
      <stop offset="1" stop-color="#ff5a7a"/>
    </linearGradient>
    <linearGradient id="linear-gradient-2" x1="-215.37" y1="512.54" x2="288.37" y2="-111.14" xlink:href="#linear-gradient"/>
    <linearGradient id="linear-gradient-3" x1="-240.76" y1="492.09" x2="262.95" y2="-131.55" gradientUnits="userSpaceOnUse">
      <stop offset="0" stop-color="#ff5a5a"/>
      <stop offset=".18" stop-color="#ffb41e"/>
      <stop offset=".33" stop-color="#31e500"/>
      <stop offset=".48" stop-color="#00cbdb"/>
      <stop offset=".68" stop-color="#9a5cff"/>
      <stop offset=".82" stop-color="#ff4ddf"/>
      <stop offset="1" stop-color="#ff5a6a"/>
    </linearGradient>
    <linearGradient id="linear-gradient-4" x1="-253.77" y1="481.53" x2="249.91" y2="-142.08" xlink:href="#linear-gradient"/>
    <linearGradient id="linear-gradient-5" x1="-250.84" y1="483.89" x2="252.84" y2="-139.71" xlink:href="#linear-gradient"/>
  </defs>
  <g class="cls-6">
    <g id="Design">
      <path class="cls-5" d="M156.18.4s-.01.01-.03.03l-67.68,41.04v.21c-12.01-3.53-25.5-.72-35.19,8.51V.4h102.89Z"/>
      <path class="cls-4" d="M156.57.41v103.27h-54.42c.47-.41.92-.83,1.37-1.27,9.71-9.45,12.99-23.01,9.78-35.23h.19L155.85,1.53l.72-1.12Z"/>
      <polygon class="cls-3" points="156.18 .4 156.57 .4 156.83 0 156.18 .4"/>
      <path class="cls-2" d="M53.29,102.69c-.35-.32-.68-.65-1-.99-4.54-4.66-7.57-10.23-9.09-16.1L0,152.56l68.13-41.33c-4.96-1.43-9.66-3.94-13.75-7.54-.37-.31-.73-.64-1.09-.99Z"/>
      <path class="cls-1" d="M105.91,67.08c-1.35-4-3.6-7.77-6.73-10.99-3.13-3.22-6.84-5.57-10.81-7.02-10.22-3.77-22.13-1.64-30.46,6.45-1.83,1.77-3.36,3.72-4.62,5.8-4.44,7.32-5.38,16.19-2.78,24.17.68,2.09,1.6,4.13,2.78,6.06,1.12,1.87,2.47,3.62,4.05,5.25,3.04,3.13,6.62,5.42,10.45,6.89.23.09.45.17.68.27,6.54,2.32,13.76,2.24,20.27-.27,3.58-1.37,6.94-3.48,9.87-6.32,8.34-8.1,10.79-19.97,7.3-30.29Z"/>
    </g>
  </g>
</svg>
